<svg xmlns="http://www.w3.org/2000/svg" width="500" height="500" viewBox="0 0 500 500">
<g>
<path d="M 290.00 296.50 C268.28,318.23 250.51,336.00 250.50,336.00 C250.49,336.00 232.72,318.23 211.00,296.50 C177.67,263.16 171.92,257.00 174.14,257.00 C175.88,257.00 176.73,257.51 176.64,258.50 C176.56,259.32 192.47,275.97 211.99,295.50 C239.84,323.36 248.02,331.00 249.99,330.99 C251.91,330.99 256.09,327.30 267.82,315.24 C276.25,306.59 283.63,299.05 284.23,298.50 C284.82,297.95 288.43,294.35 292.24,290.50 C296.04,286.65 299.63,283.05 300.21,282.50 C313.36,270.03 322.00,260.72 322.00,259.04 C322.00,257.35 322.64,257.00 325.75,257.00 C329.47,257.00 329.26,257.23 290.00,296.50 ZM 153.02 204.50 C152.99,206.15 152.53,208.18 152.00,209.00 C150.21,211.77 150.87,205.31 153.04,198.89 C162.83,169.83 195.20,156.39 223.74,169.53 C229.42,172.14 233.09,174.91 240.74,182.35 C246.10,187.57 250.20,192.14 249.83,192.50 C248.86,193.48 245.00,191.15 245.00,189.58 C245.00,188.84 243.31,186.97 241.25,185.41 C239.19,183.86 235.62,180.76 233.32,178.54 C227.53,172.94 223.48,170.00 221.54,170.00 C220.64,170.00 218.61,169.33 217.03,168.51 C215.27,167.60 210.93,166.96 205.83,166.86 C188.53,166.51 182.00,167.50 182.00,170.49 C182.00,171.55 181.14,171.97 179.25,171.85 C176.37,171.65 169.23,175.93 165.36,180.16 C161.87,183.98 156.00,193.76 156.00,195.76 C156.00,196.78 155.34,198.49 154.53,199.56 C153.72,200.63 153.04,202.85 153.02,204.50 ZM 242.58 288.23 C238.89,290.75 235.74,287.02 233.07,277.00 C231.82,272.33 230.13,266.70 229.30,264.50 C227.70,260.23 224.00,246.37 224.00,244.64 C224.00,241.35 226.27,247.21 229.95,260.00 C237.93,287.79 238.69,289.42 242.41,286.68 C243.40,285.94 245.74,278.44 248.62,266.75 C251.15,256.44 253.51,248.01 253.86,248.02 C254.21,248.04 255.79,252.10 257.38,257.06 C260.14,265.71 262.56,269.01 265.02,267.49 C265.56,267.15 266.00,267.31 266.00,267.83 C266.00,270.00 262.86,269.75 260.03,267.37 C258.09,265.74 256.99,263.87 256.96,262.16 C256.95,260.70 256.35,258.46 255.64,257.18 C254.58,255.27 254.16,255.11 253.22,256.24 C251.81,257.94 249.00,268.47 249.00,272.06 C249.00,276.77 245.15,286.48 242.58,288.23 ZM 339.12 246.75 C337.22,248.96 336.75,249.00 315.21,249.00 L 293.24 249.00 L 292.07 244.38 C291.43,241.84 291.13,239.53 291.41,239.26 C291.68,238.99 292.21,240.05 292.59,241.63 C292.97,243.21 293.68,245.02 294.18,245.65 C295.24,247.01 334.72,247.51 336.75,246.19 C337.44,245.75 339.62,242.71 341.59,239.44 C344.85,234.05 346.72,228.04 349.02,215.50 C349.74,211.58 349.75,211.61 349.87,217.07 C350.07,225.76 344.90,240.03 339.12,246.75 ZM 210.85 244.25 L 209.80 249.00 L 163.10 249.00 L 160.19 244.75 C156.50,239.36 153.72,233.95 154.32,233.35 C154.99,232.68 161.00,241.83 161.00,243.51 C161.00,246.44 164.98,247.00 185.81,247.00 C201.36,247.00 207.02,246.68 207.77,245.75 C208.33,245.06 209.55,241.01 210.49,236.75 C211.43,232.49 212.64,229.00 213.17,229.00 C213.70,229.00 213.91,229.79 213.64,230.75 C213.37,231.71 212.87,234.07 212.53,236.00 C212.18,237.93 211.43,241.64 210.85,244.25 ZM 343.31 188.84 C345.52,192.71 343.73,193.08 341.30,189.25 C340.34,187.74 338.97,186.14 338.27,185.70 C337.57,185.26 337.00,184.26 337.00,183.49 C337.00,182.71 336.00,181.53 334.77,180.88 C333.54,180.22 331.79,178.74 330.88,177.59 C329.38,175.70 325.24,173.36 315.00,168.61 C313.08,167.72 310.02,166.82 308.21,166.62 C306.40,166.42 304.60,165.91 304.21,165.49 C303.82,165.06 305.98,165.00 309.00,165.33 C317.56,166.29 329.62,172.73 336.13,179.83 C339.09,183.05 342.31,187.11 343.31,188.84 ZM 242.02 263.75 C241.42,266.09 240.73,268.00 240.49,268.00 C240.25,268.00 239.10,264.74 237.92,260.75 C236.75,256.76 234.48,249.24 232.89,244.04 C229.62,233.33 229.46,232.32 231.34,234.20 C232.08,234.94 232.92,237.58 233.20,240.06 C233.48,242.55 234.41,246.14 235.26,248.04 C236.11,249.94 237.10,252.79 237.45,254.37 C238.03,256.93 238.41,257.17 241.11,256.63 C243.65,256.12 244.05,256.30 243.62,257.76 C243.35,258.72 242.62,261.41 242.02,263.75 ZM 264.01 245.82 C265.58,246.41 265.66,246.88 264.62,249.40 C263.46,252.25 263.37,252.12 260.19,242.90 C256.17,231.28 255.84,230.74 252.89,231.16 C251.07,231.42 250.13,232.57 248.96,236.00 C248.11,238.48 247.17,241.18 246.86,242.00 C246.56,242.82 246.30,240.92 246.30,237.77 C246.29,232.87 246.62,231.82 248.61,230.52 C253.79,227.13 257.17,229.78 260.46,239.82 C261.47,242.89 262.97,245.43 264.01,245.82 ZM 273.97 221.29 C271.66,229.18 268.98,233.46 270.46,226.91 C270.88,225.03 271.54,221.69 271.92,219.47 C272.82,214.25 276.68,209.00 279.62,209.00 C282.48,209.00 286.02,213.86 285.93,217.65 C285.87,220.00 285.60,219.66 284.40,215.75 C283.20,211.85 282.52,211.00 280.59,211.00 C277.42,211.00 276.63,212.22 273.97,221.29 ZM 284.63 244.47 C285.95,247.93 283.34,245.69 281.74,242.00 C279.59,237.05 277.52,236.89 275.98,241.57 C275.33,243.53 274.62,244.96 274.41,244.74 C274.19,244.53 275.19,240.86 276.63,236.59 C278.06,232.33 279.60,229.21 280.04,229.67 C280.48,230.13 281.56,233.30 282.44,236.72 C283.32,240.14 284.30,243.63 284.63,244.47 ZM 218.08 250.27 C216.92,254.69 215.93,256.58 214.64,256.83 C212.91,257.16 212.92,257.08 214.70,255.30 C215.95,254.05 217.23,249.95 218.47,243.18 C219.50,237.55 220.79,233.10 221.33,233.28 C221.87,233.46 222.88,235.53 223.57,237.88 C224.62,241.43 224.61,242.06 223.49,241.63 C221.47,240.86 219.88,243.40 218.08,250.27 ZM 349.58 206.58 C349.94,208.51 349.81,210.00 349.28,210.00 C347.54,210.00 347.00,208.69 347.00,204.46 C347.00,201.93 346.40,199.75 345.50,199.00 C343.85,197.63 343.43,193.00 344.96,193.00 C345.93,193.00 348.39,200.23 349.58,206.58 ZM 153.57 228.25 C154.37,233.31 153.51,233.00 152.18,227.75 C150.59,221.47 149.76,212.73 150.81,213.38 C151.31,213.69 152.00,216.32 152.35,219.22 C152.69,222.12 153.24,226.19 153.57,228.25 ZM 215.44 221.64 C214.30,227.94 212.95,229.13 213.24,223.58 C213.40,220.59 214.02,218.49 214.82,218.22 C215.83,217.89 215.97,218.68 215.44,221.64 Z" fill="rgb(188,9,13)"/>
<path d="M 0.00 0.00 L 500.00 0.00 L 500.00 500.00 L 0.00 500.00 ZM 240.86 332.21 C245.71,337.13 248.39,337.94 253.42,336.03 C256.54,334.84 332.00,259.62 332.00,257.70 C332.00,256.94 330.79,255.77 329.30,255.09 C325.73,253.47 327.83,252.04 333.82,252.02 C339.64,251.99 341.46,250.82 343.46,245.78 C344.39,243.43 346.36,240.23 347.83,238.68 L 350.50 235.87 L 350.50 214.27 C350.50,198.04 350.19,192.57 349.27,192.26 C348.59,192.03 346.60,189.15 344.84,185.86 C340.05,176.86 334.11,171.45 323.27,166.21 L 313.87 161.67 L 300.43 161.67 C292.78,161.67 286.02,162.14 284.75,162.76 C283.51,163.35 281.29,164.11 279.82,164.42 C278.34,164.74 276.85,165.90 276.50,167.00 C276.06,168.39 274.99,169.00 272.98,169.00 C269.07,169.00 265.17,170.90 264.45,173.15 C264.13,174.17 263.47,175.00 262.98,175.00 C262.49,175.00 259.53,177.54 256.39,180.65 C251.64,185.37 250.43,186.10 249.10,185.12 C248.22,184.47 246.31,183.19 244.86,182.27 C243.41,181.34 241.16,178.85 239.86,176.72 C238.03,173.71 235.83,172.06 230.05,169.34 C225.96,167.41 221.51,164.97 220.16,163.92 C217.98,162.19 216.05,162.00 201.64,162.06 C186.02,162.12 185.38,162.21 179.21,165.06 C175.72,166.68 172.55,168.01 172.18,168.02 C171.15,168.06 160.93,178.16 157.25,182.78 C155.46,185.03 154.00,187.57 154.00,188.43 C154.00,189.29 153.60,190.00 153.11,190.00 C152.01,190.00 150.89,192.59 150.40,196.27 C150.20,197.79 149.42,200.26 148.67,201.77 C146.71,205.67 147.30,225.42 149.53,230.63 C150.44,232.76 151.41,235.85 151.68,237.50 C152.39,241.78 155.44,246.34 159.77,249.59 C161.82,251.13 163.73,252.72 164.01,253.13 C164.30,253.53 165.36,253.78 166.38,253.68 C167.78,253.54 168.32,254.31 168.62,256.89 C168.92,259.49 170.53,261.76 175.53,266.64 C179.12,270.14 182.49,273.00 183.02,273.00 C183.56,273.00 184.00,273.44 184.00,273.97 C184.00,274.50 191.31,282.33 200.25,291.36 C209.19,300.39 217.24,308.55 218.15,309.49 C220.25,311.67 232.25,323.67 234.51,325.85 C235.45,326.76 238.30,329.62 240.86,332.21 ZM 275.94 230.25 C275.23,232.04 274.11,234.31 273.45,235.30 C272.36,236.92 272.19,236.93 271.62,235.45 C271.27,234.53 271.87,232.59 273.00,231.00 C274.10,229.46 275.00,227.47 275.00,226.58 C275.00,225.70 275.40,224.19 275.89,223.24 C276.38,222.28 277.27,220.26 277.87,218.75 C279.42,214.83 280.70,215.34 281.63,220.25 C282.74,226.12 282.70,226.48 281.00,226.60 C277.62,226.82 277.19,227.13 275.94,230.25 ZM 225.00 227.13 C225.00,230.88 223.88,231.28 220.63,228.69 C218.14,226.70 217.91,225.97 218.19,221.01 C218.43,216.72 218.88,215.45 220.25,215.19 C221.58,214.93 222.01,215.54 222.03,217.68 C222.05,219.23 222.72,221.37 223.53,222.44 C224.34,223.51 225.00,225.62 225.00,227.13 ZM 243.01 275.95 C242.35,278.73 241.45,281.00 241.02,281.00 C239.81,281.00 238.32,278.75 237.71,276.00 C237.41,274.62 236.85,272.50 236.47,271.29 C235.84,269.25 236.07,269.10 239.42,269.40 C241.43,269.58 243.32,269.99 243.64,270.31 C243.96,270.63 243.68,273.17 243.01,275.95 ZM 255.17 250.71 C254.53,249.06 254.04,248.03 253.86,248.02 C253.61,248.01 252.32,252.36 250.67,258.64 C252.30,251.80 253.36,246.36 252.86,246.16 C252.38,245.98 252.24,245.42 252.55,244.91 C252.86,244.41 252.64,244.00 252.06,244.00 C250.76,244.00 250.69,239.04 251.96,237.03 C253.10,235.22 253.23,235.37 255.37,241.17 C257.99,248.24 258.34,251.07 256.51,250.37 C255.56,250.00 255.07,249.81 255.17,250.71 ZM 267.26 253.25 C267.55,254.00 266.79,256.26 265.57,258.29 L 263.35 261.96 L 261.13 258.97 C258.86,255.89 259.21,253.62 262.00,253.36 C262.83,253.28 264.23,252.92 265.12,252.55 C266.08,252.16 266.95,252.44 267.26,253.25 ZM 249.11 251.92 C247.17,257.84 246.38,258.79 245.56,256.19 C244.63,253.27 247.70,247.08 250.11,247.02 C250.44,247.01 249.99,249.21 249.11,251.92 ZM 296.25 253.48 C296.09,255.06 294.69,254.96 291.59,253.14 C289.99,252.20 288.56,250.62 288.41,249.61 C288.17,247.92 288.30,247.93 290.32,249.79 C291.52,250.90 293.37,251.96 294.43,252.15 C295.49,252.34 296.31,252.94 296.25,253.48 ZM 177.00 253.50 C177.00,254.48 176.02,255.00 174.17,255.00 C171.08,255.00 169.75,254.21 170.59,252.86 C171.54,251.32 177.00,251.87 177.00,253.50 ZM 287.00 233.56 C287.00,235.91 285.24,236.04 284.63,233.74 C283.69,230.25 283.88,229.66 285.50,231.00 C286.33,231.68 287.00,232.84 287.00,233.56 ZM 234.43 257.67 C234.78,258.58 234.66,259.74 234.17,260.23 C233.32,261.08 232.00,259.07 232.00,256.92 C232.00,255.36 233.75,255.90 234.43,257.67 ZM 270.00 246.88 C270.00,248.10 269.36,249.00 268.50,249.00 C267.67,249.00 267.00,248.61 267.00,248.12 C267.00,247.64 267.67,246.68 268.50,246.00 C269.75,244.96 270.00,245.10 270.00,246.88 ZM 288.61 243.42 C288.94,244.29 288.74,245.00 288.17,245.00 C286.57,245.00 286.16,243.72 287.05,241.50 C287.50,240.40 287.89,240.03 287.93,240.67 C287.97,241.31 288.27,242.55 288.61,243.42 ZM 304.50 254.00 C304.85,254.57 303.99,255.00 302.50,255.00 C301.01,255.00 300.15,254.57 300.50,254.00 C300.84,253.45 301.74,253.00 302.50,253.00 C303.26,253.00 304.16,253.45 304.50,254.00 ZM 249.50 179.00 C249.84,179.55 250.54,180.00 251.06,180.00 C251.58,180.00 252.00,179.55 252.00,179.00 C252.00,178.45 251.30,178.00 250.44,178.00 C249.58,178.00 249.16,178.45 249.50,179.00 ZM 242.39 286.68 C243.21,286.07 245.65,278.04 247.99,269.28 C245.40,279.52 243.33,286.00 242.41,286.68 C241.85,287.09 241.36,287.40 240.90,287.55 C239.81,287.89 238.90,287.25 237.71,284.64 C238.90,287.25 239.81,287.88 240.90,287.55 C241.35,287.40 241.84,287.09 242.39,286.68 ZM 260.07 267.40 C261.73,268.79 263.49,269.44 264.66,269.30 C264.62,269.32 264.57,269.33 264.53,269.35 C263.42,269.78 261.63,268.84 260.07,267.40 ZM 265.08 267.45 C265.06,267.46 265.04,267.47 265.02,267.49 C263.58,268.37 262.17,267.63 260.68,265.13 C262.06,267.32 263.36,268.07 264.72,267.55 C264.85,267.51 264.97,267.47 265.08,267.45 ZM 265.99 268.02 C266.00,267.98 266.00,267.94 266.00,267.89 C266.00,267.90 266.00,267.91 266.00,267.92 C266.00,267.95 266.00,267.99 265.99,268.02 Z" fill="rgb(254,254,254)"/>
<path d="M 153.02 204.50 C153.04,202.85 153.72,200.63 154.53,199.56 C155.34,198.49 156.00,196.78 156.00,195.76 C156.00,193.76 161.87,183.98 165.36,180.16 C169.23,175.93 176.37,171.65 179.25,171.85 C181.14,171.97 182.00,171.55 182.00,170.49 C182.00,167.50 188.53,166.51 205.83,166.86 C210.93,166.96 215.27,167.60 217.03,168.51 C218.61,169.33 220.64,170.00 221.54,170.00 C223.48,170.00 227.53,172.94 233.32,178.54 C235.62,180.76 239.19,183.86 241.25,185.41 C243.31,186.97 245.00,188.84 245.00,189.58 C245.00,191.15 248.86,193.48 249.83,192.50 C250.20,192.14 246.10,187.57 240.74,182.35 C240.00,181.63 239.29,180.95 238.62,180.31 C239.34,181.00 240.10,181.73 240.90,182.50 L 250.86 192.16 L 260.50 182.83 C265.80,177.70 270.67,173.33 271.32,173.12 C271.97,172.91 273.17,172.18 274.00,171.50 C274.83,170.82 278.20,169.23 281.50,167.97 C286.58,166.03 289.51,165.67 300.56,165.59 L 304.30 165.56 C304.82,165.97 306.51,166.43 308.21,166.62 C310.02,166.82 313.08,167.72 315.00,168.61 C325.24,173.36 329.38,175.70 330.88,177.59 C331.79,178.74 333.54,180.22 334.77,180.88 C336.00,181.53 337.00,182.71 337.00,183.49 C337.00,184.26 337.57,185.26 338.27,185.70 C338.97,186.14 340.34,187.74 341.30,189.25 C343.25,192.32 344.78,192.69 344.18,190.73 C344.68,191.68 345.15,192.64 345.59,193.62 C345.34,193.22 345.13,193.00 344.96,193.00 C343.43,193.00 343.85,197.63 345.50,199.00 C346.40,199.75 347.00,201.93 347.00,204.46 C347.00,208.69 347.54,210.00 349.28,210.00 C349.49,210.00 349.64,209.76 349.72,209.36 C349.91,211.22 350.00,213.12 350.00,215.05 C350.00,222.14 348.71,228.39 345.84,234.97 C348.35,228.81 349.99,222.03 349.87,217.07 C349.75,211.61 349.74,211.58 349.02,215.50 C346.72,228.04 344.85,234.05 341.59,239.44 C339.62,242.71 337.44,245.75 336.75,246.19 C334.72,247.51 295.24,247.01 294.18,245.65 C293.68,245.02 292.97,243.21 292.59,241.63 C292.21,240.05 291.68,238.99 291.41,239.26 C291.22,239.44 291.30,240.53 291.55,241.98 L 290.62 238.13 C289.17,232.16 286.83,223.61 285.42,219.13 C283.18,212.01 282.59,211.01 280.53,211.00 C280.55,211.00 280.57,211.00 280.59,211.00 C282.52,211.00 283.20,211.85 284.40,215.75 C285.60,219.66 285.87,220.00 285.93,217.65 C286.02,213.86 282.48,209.00 279.62,209.00 C276.68,209.00 272.82,214.25 271.92,219.47 C271.54,221.69 270.88,225.03 270.46,226.91 C269.58,230.80 270.17,230.87 271.28,228.62 C270.29,231.44 269.43,233.86 269.00,235.00 C266.89,240.68 266.65,241.42 266.47,243.04 C266.37,243.89 265.71,246.36 264.99,248.53 L 263.69 252.47 L 262.79 250.00 C263.61,251.74 263.92,251.11 264.62,249.40 C265.66,246.88 265.58,246.41 264.01,245.82 C262.97,245.43 261.47,242.89 260.46,239.82 C257.17,229.78 253.79,227.13 248.61,230.52 C246.62,231.82 246.29,232.87 246.30,237.77 C246.30,240.92 246.56,242.82 246.86,242.00 C247.17,241.18 248.11,238.48 248.96,236.00 C250.13,232.57 251.07,231.42 252.89,231.16 C253.33,231.10 253.71,231.06 254.05,231.07 C253.79,231.10 253.49,231.15 253.15,231.19 C250.89,231.45 250.25,232.31 248.82,237.00 C246.57,244.33 244.85,250.76 243.59,256.53 C243.28,256.28 242.53,256.34 241.11,256.63 C238.41,257.17 238.03,256.93 237.45,254.37 C237.10,252.79 236.11,249.94 235.26,248.04 C234.41,246.14 233.48,242.55 233.20,240.06 C232.92,237.58 232.08,234.94 231.34,234.20 C230.57,233.43 230.14,233.14 230.13,233.81 C229.20,230.51 228.32,227.33 227.55,224.50 C224.31,212.66 222.72,209.76 219.71,210.19 C217.76,210.47 217.13,211.02 215.67,218.56 C215.55,218.15 215.27,218.07 214.82,218.22 C214.02,218.49 213.40,220.59 213.24,223.58 C213.05,227.25 213.58,227.97 214.28,226.23 C214.18,226.80 214.08,227.39 213.97,228.00 C213.88,228.50 213.79,229.00 213.70,229.51 C213.62,229.20 213.43,229.00 213.17,229.00 C212.64,229.00 211.43,232.49 210.49,236.75 C209.55,241.01 208.33,245.06 207.77,245.75 C207.02,246.68 201.36,247.00 185.81,247.00 C164.98,247.00 161.00,246.44 161.00,243.51 C161.00,241.83 154.99,232.68 154.32,233.35 C154.22,233.45 154.21,233.66 154.28,233.99 C153.87,233.00 153.50,232.01 153.17,231.01 C153.87,232.75 154.15,231.89 153.57,228.25 C153.24,226.19 152.69,222.12 152.35,219.22 C152.00,216.32 151.31,213.69 150.81,213.38 C150.80,213.38 150.80,213.38 150.79,213.37 C150.83,212.01 150.91,210.66 151.05,209.34 C151.18,209.83 151.49,209.79 152.00,209.00 C152.53,208.18 152.99,206.15 153.02,204.50 ZM 242.58 288.23 C245.15,286.48 249.00,276.77 249.00,272.06 C249.00,268.47 251.81,257.94 253.22,256.24 C254.16,255.11 254.58,255.27 255.64,257.18 C256.35,258.46 256.95,260.70 256.96,262.16 C256.99,263.87 258.09,265.74 260.03,267.37 C260.04,267.38 260.05,267.39 260.07,267.40 C261.63,268.84 263.42,269.78 264.53,269.35 C264.57,269.33 264.62,269.32 264.66,269.30 C265.42,269.21 265.92,268.78 265.99,268.02 C266.00,267.99 266.00,267.95 266.00,267.92 C266.00,267.91 266.00,267.90 266.00,267.89 C266.00,267.87 266.00,267.85 266.00,267.83 C266.00,267.33 265.59,267.17 265.08,267.45 C264.97,267.47 264.85,267.51 264.72,267.55 C263.90,267.87 263.10,267.72 262.30,267.07 C263.48,267.91 264.71,267.67 266.06,266.45 C267.10,265.51 268.23,263.78 268.57,262.62 C270.51,255.96 272.68,249.05 274.62,243.29 C274.41,244.14 274.33,244.67 274.41,244.74 C274.62,244.96 275.33,243.53 275.98,241.57 C277.52,236.89 279.59,237.05 281.74,242.00 C282.87,244.62 284.52,246.51 284.91,246.14 C285.60,248.64 286.24,250.88 286.67,252.23 L 288.15 256.96 L 308.58 257.23 L 322.66 257.42 C322.15,257.72 322.00,258.22 322.00,259.04 C322.00,260.72 313.36,270.03 300.21,282.50 C299.63,283.05 296.04,286.65 292.24,290.50 C288.43,294.35 284.82,297.95 284.23,298.50 C283.63,299.05 276.25,306.59 267.82,315.24 C256.09,327.30 251.91,330.99 249.99,330.99 C248.02,331.00 239.84,323.36 211.99,295.50 C192.47,275.97 176.56,259.32 176.64,258.50 C176.73,257.51 175.88,257.00 174.14,257.00 C171.92,257.00 177.67,263.16 210.99,296.49 L 171.51 257.00 L 192.25 257.00 C210.67,257.00 213.13,256.82 214.74,255.26 C214.73,255.27 214.72,255.28 214.70,255.30 C212.92,257.08 212.91,257.16 214.64,256.83 C215.93,256.58 216.92,254.69 218.08,250.27 C219.88,243.40 221.47,240.86 223.49,241.63 C224.04,241.84 224.32,241.80 224.34,241.28 C225.33,244.34 226.47,248.06 227.62,252.05 C227.97,253.24 228.30,254.39 228.63,255.51 C225.74,245.88 224.00,241.76 224.00,244.64 C224.00,246.37 227.70,260.23 229.30,264.50 C230.13,266.70 231.82,272.33 233.07,277.00 C235.74,287.02 238.89,290.75 242.58,288.23 ZM 290.00 296.50 C320.43,266.06 327.40,259.08 327.26,257.48 L 329.01 257.50 L 289.75 296.75 L 287.26 299.24 ZM 160.27 184.91 C173.76,166.36 199.53,158.38 223.73,169.52 C200.27,158.73 174.24,165.89 160.27,184.91 ZM 310.35 165.52 L 313.63 165.50 L 319.56 168.44 C316.38,167.03 313.21,166.01 310.35,165.52 ZM 238.79 286.58 C238.45,286.11 238.09,285.48 237.71,284.64 C236.22,281.38 234.28,275.03 230.99,263.64 C235.17,277.90 237.19,284.20 238.76,286.54 C238.77,286.55 238.78,286.56 238.79,286.58 ZM 334.37 178.05 C336.91,180.39 339.16,182.95 341.10,185.72 C339.69,183.89 337.86,181.72 336.13,179.83 C335.58,179.23 335.00,178.64 334.37,178.05 ZM 277.93 211.75 C277.05,212.61 276.25,214.45 274.85,218.37 C276.05,214.52 276.87,212.64 277.93,211.75 ZM 339.12 246.75 C340.10,245.60 341.07,244.24 342.00,242.72 C341.01,244.58 340.18,245.89 339.06,246.82 C339.08,246.79 339.10,246.77 339.12,246.75 ZM 259.86 241.95 C258.09,237.09 257.08,234.36 256.33,232.84 C257.19,234.37 258.18,237.12 259.86,241.95 ZM 160.57 245.30 L 163.10 249.00 L 162.96 249.00 ZM 330.20 248.92 C327.49,249.02 324.01,249.01 319.46,249.00 C318.14,249.00 316.73,249.00 315.22,249.00 C322.14,249.00 326.88,249.00 330.20,248.92 ZM 239.25 264.99 C239.08,264.53 238.91,264.00 238.72,263.40 C238.07,261.35 237.04,257.90 235.83,253.74 C236.64,256.44 237.39,258.95 237.92,260.75 C238.39,262.33 238.85,263.79 239.25,264.99 ZM 210.85 244.25 C211.21,242.64 211.63,240.62 211.98,238.86 C211.47,241.53 211.03,243.68 210.77,244.75 L 210.30 246.72 ZM 242.02 263.75 C242.12,263.37 242.22,262.98 242.32,262.59 C241.97,264.14 241.66,265.28 241.37,266.01 C241.58,265.36 241.81,264.58 242.02,263.75 ZM 250.50 336.00 L 250.49 336.00 L 211.22 296.72 C232.64,318.14 250.16,335.67 250.50,336.00 ZM 257.65 249.57 C257.74,248.26 256.98,245.52 255.37,241.17 C257.02,245.61 257.77,248.30 257.65,249.57 ZM 215.95 253.12 C216.79,251.01 217.66,247.58 218.47,243.18 C217.64,247.70 216.79,251.03 215.95,253.12 ZM 221.32 233.27 C220.81,233.15 219.68,236.95 218.70,241.95 C219.69,236.92 220.82,233.11 221.31,233.27 C221.31,233.27 221.32,233.27 221.32,233.27 ZM 255.37 250.08 C255.55,250.02 255.84,250.11 256.24,250.26 C255.86,250.12 255.57,250.06 255.37,250.08 ZM 279.99 229.63 C279.96,229.62 279.93,229.62 279.89,229.63 C279.93,229.61 279.96,229.61 279.99,229.63 Z" fill="rgb(205,0,0)"/>
<path d="M 240.86 332.21 C238.30,329.62 235.45,326.76 234.51,325.85 C232.25,323.67 220.25,311.67 218.15,309.49 C217.24,308.55 209.19,300.39 200.25,291.36 C191.31,282.33 184.00,274.50 184.00,273.97 C184.00,273.44 183.56,273.00 183.02,273.00 C182.49,273.00 179.12,270.14 175.53,266.64 C170.53,261.76 168.92,259.49 168.62,256.89 C168.32,254.31 167.78,253.54 166.38,253.68 C165.36,253.78 164.30,253.53 164.01,253.13 C163.73,252.72 161.82,251.13 159.77,249.59 C155.44,246.34 152.39,241.78 151.68,237.50 C151.41,235.85 150.44,232.76 149.53,230.63 C147.30,225.42 146.71,205.67 148.67,201.77 C149.42,200.26 150.20,197.79 150.40,196.27 C150.89,192.59 152.01,190.00 153.11,190.00 C153.60,190.00 154.00,189.29 154.00,188.43 C154.00,187.57 155.46,185.03 157.25,182.78 C160.93,178.16 171.15,168.06 172.18,168.02 C172.55,168.01 175.72,166.68 179.21,165.06 C185.38,162.21 186.02,162.12 201.64,162.06 C216.05,162.00 217.98,162.19 220.16,163.92 C221.51,164.97 225.96,167.41 230.05,169.34 C235.83,172.06 238.03,173.71 239.86,176.72 C241.16,178.85 243.41,181.34 244.86,182.27 C246.31,183.19 248.22,184.47 249.10,185.12 C250.43,186.10 251.64,185.37 256.39,180.65 C259.53,177.54 262.49,175.00 262.98,175.00 C263.47,175.00 264.13,174.17 264.45,173.15 C265.17,170.90 269.07,169.00 272.98,169.00 C274.99,169.00 276.06,168.39 276.50,167.00 C276.85,165.90 278.34,164.74 279.82,164.42 C281.29,164.11 283.51,163.35 284.75,162.76 C286.02,162.14 292.78,161.67 300.43,161.67 L 313.87 161.67 L 323.27 166.21 C334.11,171.45 340.05,176.86 344.84,185.86 C346.60,189.15 348.59,192.03 349.27,192.26 C350.19,192.57 350.50,198.04 350.50,214.27 L 350.50 235.87 L 347.83 238.68 C346.36,240.23 344.39,243.43 343.46,245.78 C341.46,250.82 339.64,251.99 333.82,252.02 C327.83,252.04 325.73,253.47 329.30,255.09 C330.79,255.77 332.00,256.94 332.00,257.70 C332.00,259.62 256.54,334.84 253.42,336.03 C248.39,337.94 245.71,337.13 240.86,332.21 ZM 308.58 257.23 L 288.15 256.96 L 286.67 252.23 C285.85,249.63 284.20,243.68 283.00,239.00 C281.80,234.32 280.44,230.11 279.99,229.63 C279.34,228.95 273.26,246.52 268.57,262.62 C268.23,263.78 267.10,265.51 266.06,266.45 C263.09,269.14 260.74,267.05 258.05,259.33 C256.74,255.57 255.44,251.86 255.16,251.08 C254.80,250.07 255.15,249.84 256.34,250.30 C258.36,251.08 258.09,248.50 255.37,241.17 C253.23,235.37 253.10,235.22 251.96,237.03 C250.69,239.04 250.76,244.00 252.06,244.00 C252.64,244.00 252.86,244.41 252.55,244.91 C252.24,245.42 252.38,245.98 252.86,246.16 C254.21,246.69 244.23,285.31 242.39,286.68 C238.58,289.53 238.28,288.83 227.62,252.05 C224.68,241.90 221.84,233.45 221.31,233.27 C220.78,233.09 219.50,237.55 218.47,243.18 C217.27,249.68 215.94,254.06 214.79,255.21 C213.18,256.82 210.88,257.00 192.25,257.00 L 171.51 257.00 L 211.00 296.50 L 250.49 336.00 L 289.75 296.75 L 329.01 257.50 L 308.58 257.23 ZM 243.01 275.95 C243.68,273.17 243.96,270.63 243.64,270.31 C243.32,269.99 241.43,269.58 239.42,269.40 C236.07,269.10 235.84,269.25 236.47,271.29 C236.85,272.50 237.41,274.62 237.71,276.00 C238.32,278.75 239.81,281.00 241.02,281.00 C241.45,281.00 242.35,278.73 243.01,275.95 ZM 242.97 259.50 C244.27,252.98 246.18,245.61 248.82,237.00 C250.25,232.31 250.89,231.45 253.15,231.19 C256.01,230.86 255.42,229.79 261.33,245.98 L 263.69 252.47 L 264.99 248.53 C265.71,246.36 266.37,243.89 266.47,243.04 C266.65,241.42 266.89,240.68 269.00,235.00 C269.72,233.07 271.70,227.45 273.41,222.50 C277.19,211.52 277.51,211.00 280.49,211.00 C282.58,211.00 283.16,211.96 285.42,219.13 C286.83,223.61 289.17,232.16 290.62,238.13 L 293.26 249.00 L 315.22 249.00 C340.31,249.00 338.36,249.68 343.91,239.00 C348.14,230.87 350.00,223.56 350.00,215.05 C350.00,195.01 339.83,178.47 322.13,169.71 L 313.63 165.50 L 300.56 165.59 C289.51,165.67 286.58,166.03 281.50,167.97 C278.20,169.23 274.83,170.82 274.00,171.50 C273.17,172.18 271.97,172.91 271.32,173.12 C270.67,173.33 265.80,177.70 260.50,182.83 L 250.86 192.16 L 240.90 182.50 C233.09,174.92 229.40,172.13 223.73,169.52 C188.94,153.50 150.91,177.01 150.77,214.61 C150.74,225.53 153.16,233.84 159.04,242.94 L 162.96 249.00 L 186.36 249.00 L 209.76 249.00 L 210.77 244.75 C211.33,242.41 212.77,234.88 213.97,228.00 C216.87,211.39 217.14,210.56 219.71,210.19 C222.72,209.76 224.31,212.66 227.55,224.50 C231.03,237.22 236.72,257.05 238.72,263.40 C240.50,269.06 241.20,268.42 242.97,259.50 ZM 267.26 253.25 C266.95,252.44 266.08,252.16 265.12,252.55 C264.23,252.92 262.83,253.28 262.00,253.36 C259.21,253.62 258.86,255.89 261.13,258.97 L 263.35 261.96 L 265.57 258.29 C266.79,256.26 267.55,254.00 267.26,253.25 ZM 234.43 257.67 C233.75,255.90 232.00,255.36 232.00,256.92 C232.00,259.07 233.32,261.08 234.17,260.23 C234.66,259.74 234.78,258.58 234.43,257.67 ZM 249.11 251.92 C249.99,249.21 250.44,247.01 250.11,247.02 C247.70,247.08 244.63,253.27 245.56,256.19 C246.38,258.79 247.17,257.84 249.11,251.92 ZM 177.00 253.50 C177.00,251.87 171.54,251.32 170.59,252.86 C169.75,254.21 171.08,255.00 174.17,255.00 C176.02,255.00 177.00,254.48 177.00,253.50 ZM 296.25 253.48 C296.31,252.94 295.49,252.34 294.43,252.15 C293.37,251.96 291.52,250.90 290.32,249.79 C288.30,247.93 288.17,247.92 288.41,249.61 C288.56,250.62 289.99,252.20 291.59,253.14 C294.69,254.96 296.09,255.06 296.25,253.48 ZM 304.50 254.00 C304.16,253.45 303.26,253.00 302.50,253.00 C301.74,253.00 300.84,253.45 300.50,254.00 C300.15,254.57 301.01,255.00 302.50,255.00 C303.99,255.00 304.85,254.57 304.50,254.00 ZM 270.00 246.88 C270.00,245.10 269.75,244.96 268.50,246.00 C267.67,246.68 267.00,247.64 267.00,248.12 C267.00,248.61 267.67,249.00 268.50,249.00 C269.36,249.00 270.00,248.10 270.00,246.88 ZM 288.61 243.42 C288.27,242.55 287.97,241.31 287.93,240.67 C287.89,240.03 287.50,240.40 287.05,241.50 C286.16,243.72 286.57,245.00 288.17,245.00 C288.74,245.00 288.94,244.29 288.61,243.42 ZM 275.94 230.25 C277.19,227.13 277.62,226.82 281.00,226.60 C282.70,226.48 282.74,226.12 281.63,220.25 C280.70,215.34 279.42,214.83 277.87,218.75 C277.27,220.26 276.38,222.28 275.89,223.24 C275.40,224.19 275.00,225.70 275.00,226.58 C275.00,227.47 274.10,229.46 273.00,231.00 C271.87,232.59 271.27,234.53 271.62,235.45 C272.19,236.93 272.36,236.92 273.45,235.30 C274.11,234.31 275.23,232.04 275.94,230.25 ZM 287.00 233.56 C287.00,232.84 286.33,231.68 285.50,231.00 C283.88,229.66 283.69,230.25 284.63,233.74 C285.24,236.04 287.00,235.91 287.00,233.56 ZM 225.00 227.13 C225.00,225.62 224.34,223.51 223.53,222.44 C222.72,221.37 222.05,219.23 222.03,217.68 C222.01,215.54 221.58,214.93 220.25,215.19 C218.88,215.45 218.43,216.72 218.19,221.01 C217.91,225.97 218.14,226.70 220.63,228.69 C223.88,231.28 225.00,230.88 225.00,227.13 ZM 249.50 179.00 C249.16,178.45 249.58,178.00 250.44,178.00 C251.30,178.00 252.00,178.45 252.00,179.00 C252.00,179.55 251.58,180.00 251.06,180.00 C250.54,180.00 249.84,179.55 249.50,179.00 Z" fill="rgb(253,247,245)"/>
</g>
</svg>